<?xml version="1.0" standalone="no"?>
<!DOCTYPE svg PUBLIC "-//W3C//DTD SVG 20010904//EN"
 "http://www.w3.org/TR/2001/REC-SVG-20010904/DTD/svg10.dtd">
<svg version="1.0" xmlns="http://www.w3.org/2000/svg"
 width="1216.000000pt" height="1216.000000pt" viewBox="0 0 1216.000000 1216.000000"
 preserveAspectRatio="xMidYMid meet">

<g transform="translate(0.000000,1216.000000) scale(0.100000,-0.100000)"
fill="#000000" stroke="none">
<path d="M5810 12153 c-225 -8 -559 -45 -805 -89 -1056 -189 -2024 -645 -2858
-1347 -167 -140 -561 -534 -698 -697 -229 -274 -396 -504 -563 -779 -488 -804
-766 -1647 -863 -2611 -24 -247 -24 -853 0 -1100 113 -1123 474 -2092 1121
-3000 185 -260 369 -474 640 -746 378 -378 708 -639 1135 -898 804 -488 1646
-766 2611 -863 247 -24 853 -24 1100 0 1122 113 2096 476 3000 1121 436 311
915 773 1256 1211 600 772 1007 1688 1178 2650 71 400 90 628 90 1075 0 378
-11 549 -54 850 -132 928 -467 1795 -986 2557 -560 823 -1304 1493 -2169 1955
-158 85 -201 105 -405 198 -815 370 -1761 548 -2730 513z m309 -1440 c10 -42
31 -224 31 -277 l0 -33 -49 11 c-49 9 -50 9 -103 -32 -29 -22 -84 -73 -122
-112 -66 -67 -70 -69 -86 -53 -10 10 -16 20 -15 21 7 8 -31 42 -47 42 -10 0
-20 10 -24 25 -3 14 -12 25 -20 25 -8 0 -11 6 -8 15 4 8 1 15 -6 15 -18 0 15
35 75 80 28 20 104 89 170 152 187 180 188 181 204 121z m-464 -363 c3 -5 1
-10 -4 -10 -6 0 -11 5 -11 10 0 6 2 10 4 10 3 0 8 -4 11 -10z m1125 -175 c500
-85 873 -293 1206 -670 109 -125 244 -315 244 -345 0 -6 -67 34 -148 89 -390
260 -720 410 -1182 535 -217 59 -485 106 -705 123 -75 6 -84 8 -55 14 19 5 42
6 50 4 30 -9 91 -14 105 -9 7 3 12 11 9 18 -2 6 5 21 16 33 11 12 20 24 20 25
0 2 -15 5 -32 6 -18 2 -34 7 -36 12 -2 6 -17 10 -33 10 -16 0 -29 4 -29 9 0
14 26 31 35 23 5 -4 0 5 -11 20 -10 15 -27 28 -36 28 -19 0 -26 20 -7 20 6 0
9 5 7 12 -5 14 -38 20 -38 7 0 -6 -6 -7 -12 -2 -7 4 -21 6 -31 5 -14 -3 -57
25 -45 29 2 0 50 7 108 14 137 18 470 12 600 -10z m-506 -200 c-4 -8 -12 -15
-18 -15 -7 0 -13 7 -13 15 0 8 8 15 18 15 12 0 16 -5 13 -15z m-82 -27 c-9 -9
-15 -9 -24 0 -9 9 -7 12 12 12 19 0 21 -3 12 -12z m645 -798 c500 -36 835
-174 1099 -452 140 -149 253 -338 317 -533 61 -186 72 -256 72 -475 0 -169 -3
-209 -24 -300 -66 -292 -201 -524 -413 -710 -51 -45 -121 -97 -155 -117 -35
-19 -63 -38 -63 -42 0 -4 28 -20 62 -36 296 -141 550 -514 613 -903 26 -153
16 -427 -18 -574 -63 -264 -179 -471 -377 -668 -234 -235 -531 -384 -894 -447
-77 -13 -225 -16 -953 -20 l-863 -4 0 370 0 371 793 0 c919 0 965 3 1162 77
218 82 381 256 437 468 58 215 22 443 -97 624 -92 140 -270 273 -436 326 -165
52 -221 55 -1072 55 l-786 0 -3 373 c-2 204 -2 375 0 380 2 4 357 7 790 7 790
0 907 4 1027 37 63 17 197 79 249 115 146 102 242 231 292 393 15 47 19 91 18
200 0 124 -3 149 -27 220 -39 118 -91 199 -188 296 -96 96 -201 157 -344 202
-159 50 -164 50 -1272 54 l-1043 4 0 -2287 0 -2287 -60 7 c-164 19 -356 121
-461 247 -95 112 -164 266 -188 419 -7 44 -11 801 -11 2337 l0 2272 108 3
c304 9 2577 7 2709 -2z m-3690 -122 c6 -13 52 -74 101 -136 135 -168 181 -261
202 -412 11 -78 5 -101 -37 -157 -125 -164 -298 -507 -393 -778 -272 -783
-215 -1737 149 -2480 72 -146 182 -329 258 -427 84 -110 98 -172 68 -311 -24
-112 -54 -186 -117 -289 -69 -111 -148 -213 -165 -213 -13 0 -146 158 -258
305 -377 499 -609 1031 -715 1644 -44 256 -61 462 -60 744 0 465 62 863 191
1240 136 393 387 848 653 1180 49 61 95 112 101 112 7 0 17 -10 22 -22z m5913
-20 c17 -24 37 -50 44 -59 30 -36 98 -132 177 -249 76 -112 107 -163 203 -333
15 -27 25 -55 22 -63 -3 -8 0 -13 7 -11 14 2 75 -117 160 -313 82 -190 173
-508 221 -772 76 -414 82 -956 15 -1363 -52 -317 -125 -582 -233 -843 -160
-391 -409 -782 -678 -1070 l-50 -52 -559 0 c-321 0 -559 4 -559 9 0 5 8 12 18
16 35 13 230 141 339 222 588 438 969 1095 1092 1883 123 784 -68 1626 -516
2273 l-75 108 7 61 c17 147 85 294 189 413 15 17 50 65 79 107 29 43 55 77 59
78 5 0 22 -19 38 -42z m-4890 -5637 c39 -38 46 -71 25 -116 -21 -42 -59 -65
-111 -65 -51 0 -104 53 -104 105 0 29 8 45 34 71 29 29 41 34 81 34 38 0 52
-5 75 -29z m3850 0 c36 -36 46 -73 29 -112 -14 -35 -62 -69 -97 -69 -65 0
-132 71 -116 123 24 81 128 114 184 58z m995 -128 l0 -148 81 -3 82 -3 4 -31
c3 -18 3 -51 0 -75 l-5 -43 -83 0 -84 0 0 -204 c0 -113 4 -216 10 -230 13 -35
57 -61 100 -60 l37 1 7 -65 c3 -38 2 -70 -4 -76 -15 -15 -120 -19 -165 -7 -52
14 -110 62 -138 114 -22 41 -22 48 -22 436 l0 395 85 72 c47 40 87 73 90 74 3
0 5 -66 5 -147z m-2940 -134 c62 -140 167 -375 234 -524 67 -148 121 -273 121
-277 0 -5 -45 -8 -99 -8 l-99 0 -51 128 c-28 70 -55 133 -59 139 -6 9 -74 13
-256 15 l-247 3 -57 -140 -58 -140 -106 -3 -107 -3 69 148 c37 81 105 236 150
343 46 107 102 238 125 290 23 52 61 139 85 192 l42 97 91 3 c51 2 96 0 100
-3 5 -3 59 -120 122 -260z m-2432 232 c110 -44 166 -116 175 -228 8 -99 -37
-186 -117 -228 -40 -20 -39 -28 7 -44 58 -21 98 -56 126 -113 33 -66 36 -180
7 -243 -37 -82 -126 -149 -233 -175 -24 -6 -161 -13 -305 -16 l-263 -5 0 541
0 542 273 -4 c256 -4 275 -5 330 -27z m1311 -253 c170 -56 273 -188 284 -364
7 -124 -20 -209 -99 -297 -136 -155 -379 -198 -576 -102 -209 102 -286 325
-187 545 33 75 131 171 208 205 106 47 252 52 370 13z m1997 6 c30 -9 66 -23
81 -30 l28 -15 -34 -49 c-19 -27 -36 -55 -38 -61 -2 -7 -24 -4 -65 10 -35 12
-79 21 -100 21 -47 0 -100 -31 -114 -68 -10 -24 -7 -30 25 -58 20 -17 58 -39
84 -49 194 -73 262 -141 262 -265 0 -75 -16 -114 -66 -162 -67 -64 -123 -83
-244 -83 -91 0 -116 4 -182 29 -43 15 -78 32 -78 37 0 5 14 38 31 74 25 54 33
63 47 55 83 -46 206 -62 262 -33 40 20 65 64 56 97 -7 30 -65 67 -173 112
-149 61 -203 121 -203 225 0 96 61 180 155 213 55 20 199 20 266 0z m672 -15
c37 -13 67 -27 67 -32 0 -5 -9 -21 -20 -37 -11 -15 -24 -39 -30 -54 -11 -30
-23 -32 -76 -10 -22 9 -66 17 -99 17 -69 2 -111 -20 -122 -61 -11 -46 -1 -54
197 -145 96 -44 150 -89 171 -144 27 -73 -5 -197 -67 -255 -91 -85 -298 -103
-450 -38 -24 11 -44 25 -44 32 -1 25 55 128 69 128 7 0 30 -10 50 -22 30 -19
50 -23 123 -23 106 0 141 19 146 79 4 51 -30 81 -156 135 -157 67 -212 126
-212 226 0 106 75 196 187 225 60 15 190 5 266 -21z m969 10 c35 -11 71 -27
82 -34 18 -14 18 -15 -8 -45 -14 -17 -29 -43 -32 -57 -7 -26 -7 -26 -79 1 -80
30 -179 14 -205 -33 -26 -50 7 -90 108 -130 185 -73 254 -143 255 -260 0 -95
-47 -164 -153 -218 -51 -26 -64 -28 -165 -28 -91 1 -120 5 -168 24 -88 35 -90
40 -59 111 15 33 32 60 37 60 6 0 31 -10 56 -22 35 -18 62 -22 127 -23 l83 0
35 37 c19 21 34 46 34 56 0 31 -50 69 -169 126 -65 31 -130 70 -152 92 -113
110 -46 306 119 350 74 20 182 17 254 -7z m-4412 -388 c0 -216 -3 -398 -6
-402 -6 -10 -107 -12 -153 -3 l-31 7 0 392 c0 215 3 395 7 399 4 4 47 5 95 4
l89 -3 -1 -394z m3852 134 c-1 -137 -2 -314 -2 -392 l0 -143 -90 0 -90 0 0
388 c0 214 3 392 7 396 4 4 46 5 93 4 l85 -3 -3 -250z"/>
<path d="M6337 9944 c-4 -4 -7 -14 -7 -23 0 -11 3 -12 11 -4 6 6 10 16 7 23
-2 6 -7 8 -11 4z"/>
<path d="M9136 8833 c-6 -14 -5 -15 5 -6 7 7 10 15 7 18 -3 3 -9 -2 -12 -12z"/>
<path d="M5772 2943 c-45 -108 -81 -197 -80 -199 9 -8 348 -7 348 1 0 6 -12
35 -26 65 -15 30 -53 116 -85 190 -32 74 -62 136 -66 137 -5 2 -45 -85 -91
-194z"/>
<path d="M3234 3201 c-2 -2 -4 -64 -4 -138 l0 -133 123 0 c145 0 190 11 234
55 29 29 33 40 33 83 0 62 -33 106 -88 122 -36 10 -290 19 -298 11z"/>
<path d="M3230 2610 l0 -152 153 4 c133 3 158 6 197 25 110 54 114 186 9 248
-29 17 -57 20 -196 23 l-163 4 0 -152z"/>
<path d="M4662 2924 c-65 -32 -108 -84 -128 -153 -30 -100 -2 -193 78 -268 57
-52 103 -67 187 -61 159 12 261 122 249 271 -6 76 -34 134 -88 179 -75 65
-204 79 -298 32z"/>
</g>
</svg>
